<!-- Generated by IcoMoon.io -->
<svg version="1.1" xmlns="http://www.w3.org/2000/svg" width="8960" height="1024" viewBox="0 0 8960 1024">
<title></title>
<g id="icomoon-ignore">
</g>
<path fill="#000" d="M8711.893 706.735c24.747-13.001 53.077-20.403 83.243-20.403h0.085c3.072 0 4.523-3.597 2.261-5.598-31.36-27.533-67.2-49.771-106.069-65.801-0.384-0.201-0.811-0.299-1.195-0.499 63.488-45.103 104.789-118.401 104.789-201.101 0-137-113.28-248-253.099-248-139.776 0-252.971 111-252.971 248 0 82.7 41.301 155.998 104.917 201.101-0.427 0.201-0.811 0.299-1.237 0.499-45.696 18.901-86.741 45.999-121.984 80.602-35.115 34.236-63.019 74.825-82.219 119.497-18.944 43.746-29.141 90.62-30.080 138.103-0.043 1.067 0.171 2.129 0.555 3.123 0.384 0.99 0.981 1.899 1.749 2.662s1.707 1.37 2.688 1.783c1.024 0.418 2.091 0.631 3.2 0.627h61.227c4.395 0 8.107-3.499 8.192-7.799 2.048-77.197 33.664-149.5 89.6-204.297 57.771-56.7 134.656-87.902 216.491-87.902 57.984 0 113.579 15.701 161.579 45.099 1.195 0.759 2.645 1.186 4.096 1.237s2.901-0.269 4.181-0.934zM8542.037 585.335c-46.848 0-90.923-17.903-124.16-50.402-16.341-15.949-29.312-34.904-38.144-55.774s-13.355-43.241-13.312-65.826c0-45.9 18.304-89.1 51.456-121.6s77.227-50.4 124.16-50.4c46.933 0 90.88 17.9 124.117 50.4 16.384 15.949 29.312 34.904 38.144 55.774s13.355 43.241 13.312 65.826c0 45.9-18.304 89.1-51.456 121.6-33.237 32.499-77.312 50.402-124.117 50.402zM8918.144 823.334h-85.888v-84.002c0-4.399-3.712-8-8.192-8h-57.259c-4.523 0-8.192 3.601-8.192 8v84.002h-85.888c-4.523 0-8.192 3.601-8.192 8v56c0 4.399 3.669 8 8.192 8h85.888v83.998c0 4.399 3.669 8 8.192 8h57.259c4.48 0 8.192-3.601 8.192-8v-83.998h85.888c4.523 0 8.192-3.601 8.192-8v-56c0-4.399-3.669-8-8.192-8z"></path>
<path fill="none" stroke-linejoin="round" stroke-linecap="round" stroke-miterlimit="4" stroke-width="85.3333" stroke="#000" d="M810.667 976v0zM640 506.667c0 39.223-7.727 78.059-22.733 114.295-15.010 36.237-37.009 69.158-64.747 96.892-27.733 27.738-60.655 49.737-96.892 64.747-36.236 15.006-75.074 22.733-114.295 22.733s-78.059-7.727-114.295-22.733c-36.236-15.010-69.161-37.009-96.895-64.747-27.734-27.733-49.733-60.655-64.743-96.892s-22.735-75.072-22.735-114.295c0-79.212 31.467-155.178 87.477-211.189s131.978-87.477 211.189-87.477c79.212 0 155.179 31.467 211.187 87.477 56.013 56.011 87.479 131.978 87.479 211.189z"></path>
<path fill="#000" d="M4435.925 1083.435c17.92-0.439 35.115-7.578 48.512-20.16 13.44-12.582 22.229-29.79 24.875-48.589h-149.632c2.688 19.307 11.904 36.924 25.899 49.57 14.037 12.642 31.915 19.46 50.347 19.179z"></path>
<path fill="none" stroke-linejoin="miter" stroke-linecap="butt" stroke-miterlimit="4" stroke-width="42.6667" stroke="#000" d="M4435.925 1083.435c17.92-0.439 35.115-7.578 48.512-20.16 13.44-12.582 22.229-29.79 24.875-48.589h-149.632c2.688 19.307 11.904 36.924 25.899 49.57 14.037 12.642 31.915 19.46 50.347 19.179z"></path>
<path fill="#000" d="M4854.272 865.702c-27.605-25.152-51.797-53.986-71.893-85.726-21.931-43.814-35.072-91.665-38.656-140.736v-144.539c-0.128-17.557-1.621-35.074-4.565-52.373-22.528-4.603-44.203-12.903-64.171-24.577 7.637 25.012 11.477 51.053 11.477 77.243v144.537c3.499 59.866 19.627 118.251 47.232 171.166 19.797 32.009 43.221 61.478 69.888 87.778h-733.355c26.641-26.3 50.099-55.77 69.871-87.778 27.618-52.915 43.738-111.3 47.245-171.166v-144.829c-0.149-33.862 6.238-67.421 18.799-98.757s31.049-59.832 54.4-83.857c23.36-24.025 51.136-43.108 81.685-56.155 30.592-13.047 63.403-19.802 96.555-19.879 48.469 0.040 95.915 14.695 136.277 42.132-4.437-16.707-6.955-33.894-7.424-51.203v-18.433c-29.909-15.028-62.037-24.914-95.061-29.259v-36.866c0-10.359-4.053-20.295-11.221-27.62s-16.896-11.441-27.008-11.441c-10.155 0-19.883 4.115-27.051 11.441s-11.179 17.261-11.179 27.62v38.329c-74.027 10.666-141.747 48.328-190.694 106.032s-75.814 131.554-75.635 207.915v144.539c-3.584 49.071-16.725 96.922-38.656 140.736-19.733 31.667-43.52 60.497-70.729 85.726-3.055 2.743-5.504 6.118-7.181 9.903-1.681 3.78-2.551 7.889-2.556 12.041v39.795c0 7.757 3.017 15.202 8.388 20.689 5.367 5.487 12.651 8.567 20.245 8.567h796.070c7.595 0 14.891-3.081 20.224-8.567 5.376-5.487 8.405-12.932 8.405-20.689v-39.795c0-4.151-0.896-8.26-2.56-12.041-1.664-3.785-4.139-7.159-7.168-9.903z"></path>
<path fill="#000" d="M4777.259 381.511c78.549 0 142.208-67.496 142.208-150.756s-63.659-150.755-142.208-150.755c-78.549 0-142.251 67.496-142.251 150.755s63.701 150.756 142.251 150.756z"></path>
<path fill="none" stroke-linejoin="miter" stroke-linecap="butt" stroke-miterlimit="4" stroke-width="42.6667" stroke="#000" d="M4777.259 381.511c78.549 0 142.208-67.496 142.208-150.756s-63.659-150.755-142.208-150.755c-78.549 0-142.251 67.496-142.251 150.755s63.701 150.756 142.251 150.756z"></path>
</svg>
